<?xml version="1.0" encoding="UTF-8" standalone="no"?>
<!DOCTYPE svg PUBLIC "-//W3C//DTD SVG 1.1//EN" "http://www.w3.org/Graphics/SVG/1.1/DTD/svg11.dtd">
<svg width="100%" height="100%" viewBox="0 0 72 72" version="1.1" xmlns="http://www.w3.org/2000/svg" xmlns:xlink="http://www.w3.org/1999/xlink" xml:space="preserve" xmlns:serif="http://www.serif.com/" style="fill-rule:evenodd;clip-rule:evenodd;stroke-linecap:round;stroke-linejoin:round;stroke-miterlimit:10;">
    <g id="color">
        <path d="M7.363,42.41C11.916,48.58 19.237,52.582 27.494,52.582C41.301,52.582 52.494,41.389 52.494,27.582C52.494,19.059 48.229,11.533 41.717,7.02C54.756,9.858 64.499,21.463 64.499,35.352C64.499,51.368 51.515,64.352 35.499,64.352C21.911,64.352 10.51,55.023 7.363,42.41Z" style="fill:none;fill-rule:nonzero;"/>
        <path d="M45.837,9.211C54.087,13.461 62.032,21.083 62.032,33.885C62.032,49.334 49.508,61.859 34.058,61.859C24.815,61.859 14.306,57.023 9.764,46.315C9.764,46.315 14.145,64.972 35.483,64.98C54.81,64.987 63.525,44.358 63.525,44.358C70.033,12.382 45.837,9.211 45.837,9.211Z" style="fill:none;fill-rule:nonzero;"/>
    </g>
    <g id="line">
        <path d="M7.363,42.41C11.916,48.58 19.237,52.582 27.494,52.582C41.301,52.582 52.494,41.389 52.494,27.582C52.494,19.059 48.229,11.533 41.717,7.02C54.756,9.858 64.499,21.463 64.499,35.352C64.499,51.368 51.515,64.352 35.499,64.352C21.911,64.352 10.51,55.023 7.363,42.41Z" style="fill:none;fill-rule:nonzero;stroke:black;stroke-width:2px;"/>
    </g>
</svg>
